<?xml version="1.0" encoding="UTF-8"?>
<svg id="Layer_1" data-name="Layer 1" xmlns="http://www.w3.org/2000/svg" viewBox="0 0 208.73 169.38">
  <defs>
    <style>
      .cls-1 {
        fill: #00aeef;
      }

      .cls-1, .cls-2, .cls-3 {
        stroke-width: 0px;
      }

      .cls-1, .cls-3 {
        fill-rule: evenodd;
      }

      .cls-2 {
        fill: #231f20;
      }

      .cls-3 {
        fill: #485e88;
      }
    </style>
  </defs>
  <g>
    <path class="cls-2" d="m22.8,124.17c-1,.13-1.88.54-2.64,1.21.92.86,1.38,1.93,1.38,3.21-.03,1.85-.72,3.26-2.09,4.21-1.35.95-2.96,1.43-4.84,1.43-.91-.02-1.78-.12-2.59-.3-.19.03-.42.07-.67.1-.26.05-.59.07-.99.07-.37,0-.64-.05-.8-.13-.15-.09-.23-.18-.23-.26,0-.18.16-.27.52-.26.19,0,.48.04.86.11s.82.15,1.32.22c.78-.17,1.45-.6,2-1.3.55-.69,1.08-1.5,1.57-2.43.5-.94,1.05-1.84,1.66-2.71.61-.87,1.35-1.57,2.24-2.09-.37-.32-.81-.56-1.32-.73-.5-.15-1.01-.22-1.53-.22-1.51,0-2.79.47-3.84,1.37-1.09.9-1.64,2.13-1.66,3.69,0,.25.04.49.11.72.06.24.16.45.29.65.26.42.67.64,1.22.65.43,0,.81-.13,1.15-.38.32-.24.59-.55.81-.95.45-.83.68-1.72.7-2.68h.16c-.08,1.47-.44,2.57-1.07,3.3-.65.73-1.42,1.09-2.32,1.09-.66,0-1.18-.25-1.57-.72-.39-.45-.58-.99-.58-1.63,0-.76.2-1.45.58-2.09.37-.65.86-1.21,1.48-1.67,1.29-.99,2.72-1.5,4.27-1.53,1.26-.02,2.4.31,3.4.97.93-.55,1.93-.89,3.01-1.03v.12Zm-2.36,3.39c0-.35-.04-.69-.11-1.03-.08-.34-.23-.65-.46-.91-.72.8-1.31,1.61-1.75,2.42-.44.82-.88,1.61-1.32,2.36-.42.75-.97,1.42-1.64,2.01-.68.6-1.62,1.07-2.81,1.41v.03c.12.04.38.08.78.13.4.06.88.09,1.44.09,1.71-.06,3.11-.74,4.2-2.05,1.1-1.31,1.66-2.79,1.67-4.45Z"/>
    <path class="cls-2" d="m30.18,130.51c-.18.25-.4.46-.65.63-.25.2-.53.3-.84.3-.4,0-.73-.18-.98-.53-.23.94-.71,1.73-1.45,2.38-.74.66-1.6,1-2.6,1.01-.51,0-.91-.16-1.2-.46-.31-.28-.47-.67-.47-1.17s.13-.98.4-1.42c.24-.43.56-.82.95-1.16.84-.71,1.74-1.08,2.71-1.09.5,0,.9.14,1.19.4.29.26.46.58.51.96.05.28.16.5.33.65.16.18.36.26.61.26.47,0,.94-.29,1.41-.88l.09.12Zm-6.43,3.63c.37,0,.72-.18,1.05-.51.33-.32.63-.72.9-1.19.57-1.01.87-1.86.88-2.54,0-.48-.2-.73-.61-.74-.35,0-.69.17-1.01.49-.33.32-.64.72-.93,1.19-.59,1.03-.89,1.89-.9,2.57,0,.48.2.72.61.73Z"/>
    <path class="cls-2" d="m35.64,129.22c-1.67,2.52-2.5,3.98-2.48,4.35,0,.24.08.36.25.38.18,0,.45-.1.79-.34.34-.21.76-.57,1.26-1.07.89-.93,1.53-1.64,1.92-2.13l.12.09c-.55.69-1.24,1.45-2.06,2.29-.52.51-.97.88-1.36,1.1-.4.22-.75.33-1.07.33-.31,0-.54-.09-.7-.26-.17-.16-.25-.37-.26-.64,0-.32.16-.76.47-1.31.32-.55.89-1.46,1.69-2.73l1.42-.07Zm.8-3.06c.18,0,.34.06.47.18.13.13.2.29.2.47,0,.19-.08.35-.21.5-.14.15-.31.23-.51.23s-.36-.05-.51-.16c-.15-.11-.23-.27-.23-.47,0-.23.08-.41.24-.55.16-.13.34-.19.55-.19Z"/>
    <path class="cls-2" d="m36.53,129.47l.1-.25h1.06l1.04-1.74,1.49-.05-1.15,1.8h1.75l-.12.25h-1.78c-.82,1.34-1.4,2.29-1.73,2.86-.34.59-.51,1-.5,1.24,0,.26.12.4.37.4.24,0,.55-.12.92-.36.37-.23.77-.55,1.21-.97.64-.63,1.29-1.38,1.94-2.24l.09.07c-.45.62-1.07,1.34-1.87,2.18-.43.44-.87.81-1.32,1.09-.46.3-.91.46-1.34.47-.31,0-.56-.07-.76-.2-.22-.14-.34-.37-.34-.7,0-.46.2-.98.58-1.57.37-.59.83-1.35,1.4-2.28h-1.04Z"/>
    <path class="cls-2" d="m46.55,129.17c-.38.53-.85,1.2-1.42,2.01-.26.39-.48.77-.66,1.15-.19.38-.29.71-.29,1.01,0,.16.04.29.11.39.06.12.18.18.34.18.67,0,1.45-.74,2.35-2.23.68-1.13,1.18-1.94,1.5-2.44l1.48-.05c-.36.54-.83,1.24-1.42,2.09-.27.4-.5.8-.68,1.19-.19.39-.29.73-.29,1.03,0,.39.17.59.51.59.37,0,.73-.14,1.08-.43.35-.27.67-.6.97-.99.6-.85.94-1.63,1.01-2.34-.13-.16-.2-.36-.21-.62,0-.19.06-.35.17-.49.1-.13.25-.2.45-.2.31,0,.51.13.61.35.09.24.14.49.14.77,0,.22-.02.48-.07.78.28.25.61.37.97.37.32,0,.6-.09.83-.28.24-.17.44-.36.61-.59l.09.07c-.18.26-.4.48-.66.67-.26.2-.55.3-.87.3-.4,0-.73-.13-1-.36-.29.9-.83,1.64-1.6,2.23-.77.6-1.64.9-2.59.91-.5,0-.86-.14-1.09-.39-.23-.25-.34-.56-.34-.94,0-.18.02-.32.05-.42l-.03-.03c-.29.46-.65.87-1.07,1.22-.41.36-.9.54-1.45.55-.34,0-.59-.12-.76-.34-.17-.22-.25-.49-.25-.82,0-.3.09-.63.24-.98.14-.33.32-.67.54-1.02.47-.72.88-1.33,1.24-1.84l1.46-.05Z"/>
    <path class="cls-2" d="m60.39,130.46c-.53.75-1.22,1.53-2.09,2.34-.63.55-1.24.94-1.82,1.17-.59.22-1.14.33-1.66.33-.53,0-.94-.17-1.23-.49-.31-.29-.46-.69-.47-1.2,0-.45.15-.89.41-1.33.26-.42.6-.81,1.01-1.16.87-.74,1.77-1.12,2.69-1.13.82,0,1.24.3,1.26.87,0,.32-.17.61-.47.86-.31.25-.7.46-1.15.63-.22.08-.44.15-.66.22-.23.07-.46.13-.67.18-.42.11-.77.19-1.03.25-.04.17-.07.33-.07.49,0,.4.11.72.34.96.21.26.52.38.91.38.81,0,1.7-.46,2.68-1.36.75-.72,1.38-1.43,1.91-2.11l.09.09Zm-3-.94c0-.24-.13-.36-.38-.36-.22,0-.46.11-.72.29-.27.18-.52.42-.76.7-.24.29-.45.58-.62.87-.18.32-.3.59-.37.83.78-.18,1.45-.49,2-.95.27-.22.47-.45.62-.69.15-.24.22-.47.22-.69Z"/>
    <path class="cls-2" d="m65.06,124.43l-4.27,6.8c-.36.56-.64,1.04-.84,1.42-.22.4-.33.71-.33.95,0,.25.1.38.3.38s.47-.11.8-.34c.32-.21.67-.5,1.05-.87.7-.71,1.38-1.49,2.03-2.35l.13.04c-.51.7-1.1,1.42-1.78,2.15-1,1.08-1.89,1.61-2.7,1.61-.63,0-.94-.27-.94-.82,0-.45.39-1.31,1.16-2.56l3.86-6.33,1.53-.08Z"/>
    <path class="cls-2" d="m68.64,124.43l-4.27,6.8c-.36.56-.64,1.04-.84,1.42-.22.4-.33.71-.33.95,0,.25.1.38.3.38s.47-.11.8-.34c.32-.21.67-.5,1.05-.87.7-.71,1.38-1.49,2.03-2.35l.13.04c-.51.7-1.1,1.42-1.78,2.15-.99,1.08-1.89,1.61-2.7,1.61-.63,0-.94-.27-.94-.82,0-.45.39-1.31,1.16-2.56l3.86-6.33,1.53-.08Z"/>
    <path class="cls-2" d="m70.29,129.47l.1-.25h1.06l1.04-1.74,1.49-.05-1.15,1.8h1.75l-.12.25h-1.78c-.82,1.34-1.4,2.29-1.73,2.86-.34.59-.51,1-.5,1.24,0,.26.12.4.37.4.24,0,.55-.12.93-.36.37-.23.77-.55,1.21-.97.64-.63,1.29-1.38,1.94-2.24l.09.07c-.45.62-1.07,1.34-1.87,2.18-.43.44-.87.81-1.32,1.09-.46.3-.91.46-1.34.47-.31,0-.56-.07-.76-.2-.22-.14-.34-.37-.34-.7,0-.46.2-.98.58-1.57.37-.59.83-1.35,1.4-2.28h-1.04Z"/>
    <path class="cls-2" d="m81.71,130.51c-.19.25-.4.46-.66.63-.25.2-.53.3-.84.3-.4,0-.73-.18-.98-.53-.23.94-.71,1.73-1.45,2.38-.74.66-1.61,1-2.6,1.01-.51,0-.91-.16-1.2-.46-.32-.28-.47-.67-.47-1.17s.13-.98.4-1.42c.24-.43.56-.82.95-1.16.84-.71,1.74-1.08,2.71-1.09.5,0,.9.14,1.19.4.29.26.46.58.51.96.05.28.16.5.33.65.16.18.36.26.61.26.47,0,.94-.29,1.41-.88l.09.12Zm-6.43,3.63c.37,0,.72-.18,1.05-.51.33-.32.63-.72.9-1.19.57-1.01.87-1.86.88-2.54,0-.48-.2-.73-.61-.74-.35,0-.69.17-1.01.49-.33.32-.64.72-.93,1.19-.59,1.03-.89,1.89-.9,2.57,0,.48.2.72.61.73Z"/>
    <path class="cls-2" d="m88.51,124.55l1.55-.08c-1.03,1.62-2.18,3.4-3.44,5.35-.6.91-1.1,1.72-1.48,2.42-.4.7-.61,1.19-.62,1.49,0,.21.1.32.29.33.42,0,1.06-.4,1.92-1.23.64-.66,1.31-1.45,2-2.38l.13.07c-.48.66-1.1,1.42-1.88,2.27-.43.46-.86.82-1.28,1.09-.41.28-.85.42-1.3.43-.4,0-.68-.14-.83-.39-.14-.23-.18-.47-.13-.72l-.03-.03c-.27.29-.58.54-.93.73-.35.2-.75.31-1.19.32-.43,0-.74-.16-.92-.44-.19-.27-.28-.6-.28-.98,0-.48.12-.94.37-1.38.24-.45.55-.86.92-1.21.8-.79,1.67-1.19,2.62-1.21.63,0,1.04.3,1.24.88l3.25-5.33Zm-6.4,9.21c.31,0,.62-.14.94-.43.31-.27.59-.61.86-1.02.27-.41.49-.83.65-1.26.16-.42.24-.79.24-1.1,0-.28-.06-.48-.19-.59-.14-.12-.32-.18-.54-.18-.29,0-.58.13-.87.37-.31.25-.59.58-.86.97-.58.83-.88,1.62-.9,2.39,0,.23.05.42.16.58.09.18.27.28.51.28Z"/>
    <path class="cls-2" d="m92.73,129.3l1.44-.08c-.13.24-.32.56-.58.95-.28.4-.56.82-.84,1.25-.29.43-.53.84-.74,1.23-.21.4-.32.72-.32.98,0,.24.11.36.34.35.23,0,.54-.13.92-.4.37-.26.76-.59,1.17-1.01.79-.85,1.4-1.57,1.84-2.15l.09.06c-.46.64-1.11,1.42-1.96,2.32-.43.45-.86.81-1.29,1.07-.44.28-.87.42-1.3.43-.29,0-.51-.09-.67-.24-.18-.15-.26-.33-.26-.55,0-.16.02-.28.06-.36h-.03c-.28.32-.6.59-.97.8-.36.22-.75.34-1.16.34-.43,0-.74-.17-.94-.47-.19-.29-.29-.64-.29-1.03,0-.46.13-.92.37-1.37.24-.45.55-.86.95-1.21.81-.78,1.68-1.19,2.59-1.22.61,0,1.02.29,1.22.86l.34-.55Zm-4.15,3.54c0,.27.05.49.16.69.09.2.27.3.54.3.3-.04.61-.21.94-.51.31-.29.59-.65.86-1.07.27-.44.49-.87.66-1.29.16-.41.24-.75.24-1.01s-.04-.46-.12-.59c-.11-.13-.3-.2-.55-.2-.32,0-.64.14-.94.4-.32.28-.62.62-.88,1.01-.27.4-.48.8-.64,1.2-.17.4-.25.76-.25,1.07Z"/>
    <path class="cls-2" d="m91.94,135.18c-.06,0-.15-.01-.25-.01-.39,0-.69.14-.9.41-.22.29-.34.64-.34,1.07,0,.49.16.86.46,1.13.28.27.65.42,1.11.42.71,0,1.35-.22,1.93-.65.58-.41,1.11-.94,1.58-1.57.48-.64.91-1.29,1.3-1.95.37-.67.71-1.26,1.01-1.77l-.03-.03c-.28.36-.68.76-1.21,1.23-.27.21-.54.39-.81.53-.3.14-.59.22-.88.23-.3,0-.52-.1-.66-.27-.13-.17-.2-.37-.2-.61,0-.23.08-.49.2-.8.13-.3.29-.62.49-.97.43-.72.9-1.5,1.41-2.35l1.47-.05c-.77,1.2-1.36,2.15-1.8,2.85-.45.72-.67,1.22-.67,1.51,0,.24.13.36.36.37.16,0,.38-.09.65-.26.25-.16.52-.39.82-.69.61-.6,1.16-1.31,1.67-2.13.43-.69.72-1.22.89-1.59l1.35-.05c-.96,1.71-1.93,3.42-2.9,5.1.9-.29,1.76-.81,2.57-1.57s1.49-1.53,2.04-2.32l.12.1c-.64.93-1.38,1.75-2.21,2.48-.86.73-1.74,1.22-2.64,1.48-.67,1.14-1.5,2.07-2.49,2.79-1,.74-2.16,1.12-3.48,1.13-.69,0-1.29-.14-1.8-.42-.52-.27-.78-.73-.8-1.4.02-.55.23-.95.65-1.2.4-.25.86-.37,1.38-.36.24,0,.45.02.62.05v.13Z"/>
    <path class="cls-2" d="m101.44,133.4c0-.23.08-.42.24-.55.15-.15.33-.22.54-.22.23,0,.41.07.55.22.15.13.22.32.22.55,0,.21-.07.39-.22.53-.14.15-.32.23-.55.24-.21,0-.39-.09-.54-.24-.16-.14-.24-.32-.24-.53Z"/>
    <path class="cls-2" d="m40.91,140.5c.02.19.03.39.04.59,0,.97-.29,1.82-.86,2.54-.57.75-1.37,1.13-2.4,1.15-.63,0-1.17-.18-1.59-.55-.44-.36-.67-.87-.67-1.52,0-.8.27-1.51.78-2.14.49-.61,1.11-1.13,1.86-1.57,1.62-.85,3.19-1.29,4.68-1.3,1.18-.03,2.34.14,3.47.51.63-.26,1.22-.39,1.78-.4v.11c-.51.07-.99.22-1.44.45.36.19.65.45.88.78.23.33.35.7.36,1.12,0,.45-.12.84-.33,1.16-.21.31-.49.57-.84.78-.74.4-1.52.62-2.35.63v.03c.29.11.54.28.74.51.2.23.31.53.32.88,0,.28-.04.56-.11.84-.08.29-.18.57-.3.84-.1.27-.2.53-.28.78-.09.25-.13.49-.13.72,0,.29.11.43.32.43.57,0,1.28-.45,2.13-1.32.87-.93,1.51-1.7,1.92-2.32l.11.1c-.48.69-1.08,1.43-1.81,2.22-.45.48-.9.86-1.34,1.12-.45.29-.92.44-1.41.45-.35,0-.62-.11-.82-.3-.21-.18-.32-.44-.32-.76,0-.29.06-.61.18-.94.1-.32.22-.64.37-.94.15-.32.28-.62.39-.88.1-.26.15-.47.16-.64,0-.33-.09-.54-.26-.65-.18-.1-.42-.15-.72-.17l.03-.11c.25.02.56,0,.92-.05.39-.07.72-.21,1.01-.42.27-.19.5-.42.67-.69.35-.57.53-1.08.53-1.53,0-.29-.04-.54-.11-.76-.09-.2-.24-.4-.45-.59-.88.67-1.61,1.52-2.2,2.54-.6,1.03-1.19,2.07-1.78,3.11-.58,1.04-1.29,1.91-2.14,2.6-.87.72-2,1.08-3.4,1.1-.55,0-1.08-.14-1.59-.43-.24-.14-.43-.32-.57-.55-.15-.22-.24-.48-.25-.79.01-.27.09-.5.22-.69.14-.18.32-.28.54-.29.2,0,.37.05.51.15.13.11.2.27.21.47,0,.37-.19.58-.54.62.02.91.51,1.36,1.46,1.34,1-.02,1.85-.43,2.53-1.23.67-.78,1.3-1.72,1.89-2.82.59-1.12,1.25-2.18,1.99-3.18.74-1,1.66-1.75,2.78-2.24-.49-.24-.99-.39-1.51-.45-.52-.06-.96-.09-1.31-.09-1.52,0-2.94.47-4.26,1.37-.63.43-1.13.95-1.52,1.56-.4.63-.61,1.32-.61,2.07,0,.5.15.9.44,1.2.29.31.68.47,1.17.47.4,0,.77-.11,1.11-.33.32-.2.61-.47.84-.8.49-.7.74-1.43.75-2.21,0-.18,0-.4-.03-.68h.15Z"/>
    <path class="cls-2" d="m54.6,144.29c-.53.75-1.22,1.53-2.09,2.34-.63.55-1.24.94-1.82,1.17-.59.22-1.14.33-1.66.33-.53,0-.94-.17-1.23-.49-.31-.29-.46-.69-.47-1.2,0-.45.15-.89.41-1.33.26-.42.6-.81,1.01-1.16.87-.74,1.77-1.12,2.69-1.13.82,0,1.24.3,1.26.87,0,.32-.17.61-.47.86-.31.25-.7.46-1.15.63-.22.08-.44.15-.66.22-.23.07-.46.13-.67.18-.42.11-.77.19-1.03.25-.04.17-.07.33-.07.49,0,.4.11.72.34.96.21.26.52.38.91.38.81,0,1.7-.46,2.68-1.36.75-.72,1.38-1.43,1.91-2.11l.09.09Zm-3-.94c0-.24-.13-.36-.38-.36-.22,0-.46.11-.72.29-.27.18-.52.42-.76.7-.24.29-.45.58-.62.87-.18.32-.3.59-.37.83.78-.18,1.45-.49,2-.95.27-.22.47-.45.62-.69.15-.24.22-.47.22-.69Z"/>
    <path class="cls-2" d="m58.42,143.13l1.44-.08c-.13.24-.32.56-.58.95-.28.4-.56.82-.84,1.25-.29.43-.53.84-.74,1.23-.21.4-.32.72-.32.98,0,.24.11.36.34.35.23,0,.54-.13.92-.4.37-.26.76-.59,1.17-1.01.79-.85,1.4-1.57,1.84-2.15l.09.06c-.46.64-1.11,1.42-1.96,2.32-.43.45-.86.81-1.29,1.07-.44.28-.87.42-1.3.43-.29,0-.51-.09-.67-.24-.18-.15-.26-.33-.26-.55,0-.16.02-.28.06-.36h-.03c-.28.32-.6.59-.97.8-.36.22-.75.34-1.16.34-.43,0-.74-.17-.94-.47-.19-.29-.29-.64-.29-1.03,0-.46.13-.92.37-1.37.24-.45.56-.86.95-1.21.81-.78,1.68-1.19,2.59-1.22.61,0,1.02.29,1.22.86l.34-.55Zm-4.15,3.54c0,.27.05.49.16.69.09.2.27.3.54.3.3-.04.61-.21.94-.51.31-.29.59-.65.86-1.07.27-.44.49-.87.66-1.29.16-.41.24-.75.24-1.01s-.04-.46-.12-.59c-.11-.13-.3-.2-.55-.2-.32,0-.64.14-.94.4-.32.28-.62.62-.88,1.01-.27.4-.48.8-.64,1.2-.17.4-.25.76-.25,1.07Z"/>
    <path class="cls-2" d="m65.09,140.28l-3.19,4.86.03.03c.19-.25.4-.51.62-.78.22-.27.46-.52.71-.76.25-.24.52-.44.82-.59.29-.15.61-.22.94-.22s.61.11.8.32c.2.22.3.5.3.86,0,.45-.11.87-.29,1.28s-.42.76-.71,1.07l.03.03c.63-.15,1.22-.43,1.78-.84.56-.4,1.04-.85,1.42-1.34l.1.09c-.35.46-.82.92-1.4,1.37-.59.45-1.28.75-2.07.91-.37.34-.82.68-1.34,1.03-.26.16-.52.29-.79.39-.27.1-.54.16-.8.17-.2,0-.37-.04-.5-.13-.15-.08-.22-.21-.22-.39,0-.19.1-.36.29-.5.19-.12.42-.22.69-.3.27-.08.54-.14.82-.18.29-.04.53-.07.72-.1.18-.23.38-.56.59-1.01.21-.42.32-.9.33-1.42,0-.22-.03-.41-.09-.57-.09-.16-.24-.24-.47-.25-.19,0-.42.1-.67.3-.26.2-.54.48-.84.83-.61.74-1.24,1.63-1.88,2.67-.64,1.04-1.24,2.05-1.8,3.03-.56.97-1.01,1.7-1.34,2.21l-1.46.05c2.48-4,4.94-8.01,7.38-12.04l1.49-.07Zm-3.23,7.3c0,.2.12.3.39.3.14,0,.28-.05.43-.14.13-.07.27-.17.41-.29.28-.26.51-.5.68-.73-.13.02-.3.04-.5.07-.21.04-.42.09-.63.15-.21.05-.39.13-.54.23-.16.1-.24.24-.24.4Z"/>
    <path class="cls-2" d="m71.18,143.3l.1-.25h1.06l1.04-1.74,1.49-.05-1.15,1.8h1.75l-.12.25h-1.78c-.82,1.34-1.4,2.29-1.73,2.86-.34.59-.51,1-.5,1.24,0,.26.12.4.37.4.24,0,.55-.12.93-.36.37-.23.77-.55,1.21-.97.64-.63,1.29-1.38,1.94-2.24l.09.07c-.45.62-1.07,1.34-1.87,2.18-.43.44-.87.81-1.32,1.09-.46.3-.91.46-1.34.47-.31,0-.56-.07-.76-.2-.22-.14-.34-.37-.34-.7,0-.46.2-.98.58-1.57.37-.59.83-1.35,1.4-2.28h-1.04Z"/>
    <path class="cls-2" d="m73.19,147.91l5.79-9.55,1.51-.07-4.59,7.24.03.03c.21-.26.45-.54.7-.84.25-.31.52-.61.82-.9.3-.29.62-.52.95-.71.32-.18.67-.28,1.03-.29.62,0,.93.31.94.92,0,.25-.11.53-.29.86-.19.34-.42.68-.67,1.03-.24.35-.46.68-.65,1-.21.32-.32.6-.32.84s.1.35.29.34c.11,0,.24-.05.39-.14.14-.07.3-.17.47-.3.36-.27.73-.61,1.11-1.01.82-.87,1.41-1.56,1.78-2.08l.08.09c-.51.69-1.15,1.44-1.92,2.25-.91.97-1.7,1.44-2.35,1.43-.33,0-.57-.11-.72-.3-.16-.17-.24-.39-.24-.65,0-.32.11-.65.32-.98.19-.33.41-.65.65-.96.26-.32.48-.62.67-.9.18-.27.28-.5.29-.7-.02-.27-.14-.4-.36-.4-.3,0-.65.19-1.07.53-.41.34-.83.78-1.26,1.3-.9,1.12-1.56,2.07-1.96,2.88l-1.42.04Z"/>
    <path class="cls-2" d="m88.25,144.29c-.53.75-1.22,1.53-2.09,2.34-.63.55-1.24.94-1.82,1.17-.59.22-1.14.33-1.66.33-.53,0-.94-.17-1.23-.49-.31-.29-.46-.69-.47-1.2,0-.45.15-.89.41-1.33.26-.42.6-.81,1.01-1.16.87-.74,1.77-1.12,2.69-1.13.82,0,1.24.3,1.26.87,0,.32-.17.61-.47.86-.32.25-.7.46-1.15.63-.22.08-.44.15-.66.22-.23.07-.46.13-.67.18-.42.11-.77.19-1.03.25-.05.17-.07.33-.07.49,0,.4.11.72.34.96.21.26.52.38.91.38.81,0,1.7-.46,2.68-1.36.75-.72,1.38-1.43,1.91-2.11l.09.09Zm-3-.94c0-.24-.13-.36-.38-.36-.22,0-.46.11-.72.29-.27.18-.52.42-.76.7-.24.29-.45.58-.62.87-.18.32-.3.59-.37.83.78-.18,1.45-.49,2-.95.27-.22.47-.45.62-.69.15-.24.22-.47.22-.69Z"/>
    <path class="cls-2" d="m89.18,147.91c.95-1.61,1.91-3.23,2.88-4.87l1.57-.05-1.82,2.57.03.03c.69-.83,1.25-1.4,1.66-1.7.2-.16.37-.28.51-.37.13-.08.22-.16.29-.22.19-.2.4-.33.61-.39.22-.05.58-.08,1.07-.09-.18.24-.33.5-.47.78-.16.28-.24.57-.24.88,0,.4.2.6.59.59.27,0,.52-.11.75-.29.22-.18.41-.36.58-.54l.05.07c-.25.32-.55.58-.9.77-.36.21-.75.32-1.16.32-.78,0-1.18-.38-1.19-1.15,0-.25.07-.47.2-.67l-.03-.03c-.77.54-1.46,1.2-2.06,1.98-.61.77-1.12,1.55-1.53,2.34l-1.4.04Z"/>
    <path class="cls-2" d="m102.95,144.29c-.53.75-1.22,1.53-2.09,2.34-.63.55-1.24.94-1.82,1.17-.59.22-1.14.33-1.66.33-.53,0-.94-.17-1.23-.49-.31-.29-.46-.69-.47-1.2,0-.45.15-.89.41-1.33.26-.42.6-.81,1.01-1.16.87-.74,1.77-1.12,2.69-1.13.82,0,1.24.3,1.26.87,0,.32-.17.61-.47.86-.32.25-.7.46-1.15.63-.22.08-.44.15-.66.22-.23.07-.46.13-.67.18-.42.11-.77.19-1.03.25-.05.17-.07.33-.07.49,0,.4.11.72.34.96.21.26.52.38.91.38.81,0,1.7-.46,2.68-1.36.75-.72,1.38-1.43,1.91-2.11l.09.09Zm-3-.94c0-.24-.13-.36-.38-.36-.22,0-.46.11-.72.29-.27.18-.52.42-.76.7-.24.29-.45.58-.62.87-.18.32-.3.59-.37.83.78-.18,1.45-.49,2-.95.27-.22.47-.45.62-.69.15-.24.22-.47.22-.69Z"/>
    <path class="cls-2" d="m104.47,142.99c-.38.53-.85,1.2-1.42,2.01-.26.39-.48.77-.66,1.15-.19.38-.29.71-.29,1.01,0,.16.04.29.11.39.06.12.18.18.34.18.67,0,1.45-.74,2.35-2.23.68-1.13,1.18-1.94,1.5-2.44l1.48-.05c-.36.54-.84,1.24-1.42,2.09-.27.4-.5.8-.68,1.19-.19.39-.29.73-.29,1.03,0,.39.17.59.51.59.37,0,.73-.14,1.08-.43.35-.27.67-.6.97-.99.6-.85.94-1.63,1.01-2.34-.13-.16-.2-.36-.21-.62,0-.19.06-.35.17-.49.1-.13.25-.2.45-.2.31,0,.51.13.61.35.09.24.14.49.14.77,0,.22-.02.48-.07.78.28.25.61.37.96.37.32,0,.6-.09.83-.28.24-.17.44-.36.61-.59l.09.07c-.18.26-.4.48-.66.67-.26.2-.55.3-.87.3-.4,0-.73-.13-1-.36-.29.9-.83,1.64-1.6,2.23-.77.6-1.64.9-2.59.91-.5,0-.86-.14-1.09-.39-.23-.25-.34-.56-.34-.94,0-.18.02-.32.05-.42l-.03-.03c-.29.46-.65.87-1.07,1.22-.41.36-.9.54-1.45.55-.34,0-.59-.12-.76-.34-.17-.22-.25-.49-.25-.82,0-.3.09-.63.24-.98.14-.33.32-.67.54-1.02.47-.72.88-1.33,1.24-1.84l1.47-.05Z"/>
    <path class="cls-2" d="m116.5,143.13l1.44-.08c-.13.24-.32.56-.58.95-.28.4-.56.82-.84,1.25-.29.43-.53.84-.74,1.23-.21.4-.32.72-.32.98,0,.24.11.36.34.35.23,0,.54-.13.92-.4.37-.26.76-.59,1.17-1.01.79-.85,1.4-1.57,1.84-2.15l.09.06c-.46.64-1.11,1.42-1.96,2.32-.43.45-.86.81-1.29,1.07-.44.28-.87.42-1.3.43-.29,0-.51-.09-.67-.24-.18-.15-.26-.33-.26-.55,0-.16.02-.28.06-.36h-.03c-.28.32-.6.59-.97.8-.36.22-.75.34-1.16.34-.43,0-.74-.17-.94-.47-.19-.29-.29-.64-.29-1.03,0-.46.13-.92.37-1.37.24-.45.55-.86.95-1.21.81-.78,1.68-1.19,2.59-1.22.61,0,1.02.29,1.22.86l.34-.55Zm-4.15,3.54c0,.27.05.49.16.69.09.2.27.3.54.3.3-.04.61-.21.94-.51.31-.29.59-.65.86-1.07.27-.44.49-.87.66-1.29.16-.41.24-.75.24-1.01s-.04-.46-.12-.59c-.11-.13-.3-.2-.55-.2-.32,0-.64.14-.94.4-.32.28-.62.62-.88,1.01-.27.4-.48.8-.64,1.2-.17.4-.25.76-.25,1.07Z"/>
    <path class="cls-2" d="m117.1,147.91c.95-1.61,1.91-3.23,2.88-4.87l1.57-.05-1.82,2.57.03.03c.69-.83,1.25-1.4,1.66-1.7.2-.16.37-.28.51-.37.13-.08.22-.16.29-.22.19-.2.4-.33.61-.39.22-.05.58-.08,1.07-.09-.18.24-.33.5-.47.78-.16.28-.24.57-.24.88,0,.4.2.6.59.59.27,0,.52-.11.75-.29.22-.18.41-.36.58-.54l.05.07c-.25.32-.55.58-.9.77-.36.21-.75.32-1.16.32-.78,0-1.18-.38-1.19-1.15,0-.25.07-.47.2-.67l-.03-.03c-.77.54-1.46,1.2-2.06,1.98-.61.77-1.12,1.55-1.53,2.34l-1.4.04Z"/>
    <path class="cls-2" d="m132.01,138.37l1.55-.08c-1.03,1.62-2.18,3.4-3.44,5.35-.6.91-1.1,1.72-1.48,2.42-.4.7-.61,1.19-.62,1.49,0,.21.1.32.29.33.42,0,1.06-.4,1.92-1.23.64-.66,1.31-1.45,2-2.38l.13.07c-.48.66-1.1,1.42-1.88,2.27-.43.46-.86.82-1.28,1.09-.41.28-.85.42-1.3.43-.4,0-.68-.14-.83-.39-.14-.23-.18-.47-.13-.72l-.03-.03c-.27.29-.58.54-.93.73-.35.2-.75.31-1.19.32-.43,0-.74-.16-.92-.44-.19-.27-.28-.6-.28-.98,0-.48.12-.94.37-1.38.24-.45.55-.86.92-1.21.8-.79,1.67-1.19,2.62-1.21.63,0,1.04.3,1.24.88l3.25-5.33Zm-6.4,9.21c.31,0,.62-.14.94-.43.31-.27.59-.61.86-1.02.27-.41.49-.83.65-1.26.16-.42.24-.79.24-1.1,0-.28-.06-.48-.19-.59-.14-.12-.32-.18-.54-.18-.29,0-.58.13-.87.37-.31.25-.59.58-.86.97-.58.83-.88,1.62-.9,2.39,0,.23.05.42.16.58.09.18.27.28.51.28Z"/>
    <path class="cls-2" d="m133.04,147.87c.93-.23,1.74-.69,2.43-1.38.69-.67,1.33-1.41,1.9-2.21l.11.09c-.7,1-1.47,1.87-2.31,2.6-.84.77-1.92,1.16-3.23,1.18-.5,0-.95-.11-1.34-.33-.18-.11-.33-.27-.44-.46-.13-.19-.2-.42-.2-.69,0-.31.1-.59.26-.86.17-.26.41-.4.74-.4.22,0,.38.06.49.18.11.12.17.26.17.41-.02.4-.2.59-.55.59-.11,0-.21-.02-.3-.07-.1.17-.16.36-.17.57,0,.26.11.46.3.62.19.17.43.26.7.26.37,0,.69-.12.96-.33.29-.21.44-.5.45-.86,0-.25-.07-.47-.17-.67-.11-.19-.24-.38-.39-.55-.15-.19-.27-.38-.38-.57-.12-.19-.18-.39-.18-.59,0-.27.06-.5.19-.7.11-.19.27-.35.46-.48.41-.26.88-.39,1.38-.39.46,0,.83.09,1.12.28.28.19.43.47.44.82,0,.27-.09.49-.26.65-.18.18-.4.26-.66.26-.18,0-.31-.02-.4-.07.18-.37.28-.73.28-1.08,0-.2-.05-.37-.14-.49-.11-.13-.27-.2-.5-.2-.25,0-.44.08-.58.24-.14.16-.22.36-.22.61s.06.47.18.66c.1.2.23.4.38.59.14.18.27.36.39.57.1.21.15.46.16.74,0,.37-.12.68-.32.94-.21.27-.46.44-.74.51v.03Z"/>
    <path class="cls-2" d="m140.28,143.3l.1-.25h1.06l1.04-1.74,1.49-.05-1.15,1.8h1.75l-.12.25h-1.78c-.82,1.34-1.4,2.29-1.73,2.86-.34.59-.51,1-.5,1.24,0,.26.12.4.37.4.24,0,.55-.12.93-.36.37-.23.77-.55,1.21-.97.64-.63,1.29-1.38,1.94-2.24l.09.07c-.45.62-1.07,1.34-1.87,2.18-.43.44-.87.81-1.32,1.09-.46.3-.91.46-1.34.47-.31,0-.56-.07-.76-.2-.22-.14-.34-.37-.34-.7,0-.46.2-.98.58-1.57.37-.59.83-1.35,1.4-2.28h-1.04Z"/>
    <path class="cls-2" d="m151.7,144.33c-.19.25-.4.46-.66.63-.25.2-.53.3-.84.3-.4,0-.73-.18-.98-.53-.23.94-.71,1.73-1.45,2.38-.74.66-1.61,1-2.6,1.01-.51,0-.91-.16-1.2-.46-.32-.28-.47-.67-.47-1.17s.13-.98.4-1.42c.24-.43.56-.82.95-1.16.84-.71,1.74-1.08,2.71-1.09.5,0,.9.14,1.19.4.29.26.46.58.51.96.05.28.16.5.33.65.16.18.36.26.61.26.47,0,.94-.29,1.41-.88l.09.12Zm-6.43,3.63c.37,0,.72-.18,1.05-.51.33-.32.63-.72.9-1.19.57-1.01.87-1.86.88-2.54,0-.48-.2-.73-.61-.74-.35,0-.69.17-1.01.49-.33.32-.64.72-.93,1.19-.59,1.03-.89,1.89-.9,2.57,0,.48.2.72.61.73Z"/>
    <path class="cls-2" d="m155.25,145.34c.37-.49.84-1.03,1.42-1.6.28-.27.58-.49.88-.67.29-.16.59-.24.9-.25.31,0,.55.1.72.28.18.18.26.39.26.64,0,.3-.11.61-.29.94-.19.33-.42.66-.67.98-.26.32-.48.63-.67.92-.21.31-.32.59-.32.86,0,.23.1.36.29.36.39,0,1-.43,1.85-1.29.74-.76,1.37-1.48,1.91-2.18l.11.05c-.47.63-1.12,1.38-1.95,2.25-.51.51-.94.88-1.27,1.09-.35.21-.69.32-1.03.32-.31,0-.56-.1-.74-.27-.19-.18-.28-.4-.28-.68,0-.31.11-.63.32-.96.19-.34.42-.67.67-1,.26-.33.49-.63.68-.91.18-.27.28-.49.29-.66-.02-.27-.15-.4-.38-.4-.13,0-.29.05-.47.15-.18.09-.37.23-.57.42-.4.36-.82.8-1.25,1.34-.87,1.16-1.5,2.09-1.88,2.79l-1.47.05c.66-1.01,1.24-1.9,1.73-2.65.24-.38.43-.71.57-1,.13-.27.2-.49.2-.66,0-.12-.03-.22-.08-.3-.07-.09-.18-.13-.32-.13s-.3.05-.47.15c-.18.09-.37.23-.58.42-.4.36-.82.8-1.24,1.34-.89,1.16-1.53,2.09-1.92,2.79l-1.39.05c1.02-1.61,2.01-3.24,2.97-4.89l1.61-.08-1.84,2.51.03.03c.19-.24.42-.51.67-.8.25-.3.51-.59.8-.87s.6-.52.93-.71c.32-.18.67-.28,1.03-.28.27,0,.49.07.66.21.18.14.26.35.26.62,0,.26-.09.54-.24.84-.15.3-.31.57-.48.82l.03.03Z"/>
    <path class="cls-2" d="m168.33,144.33c-.19.25-.4.46-.66.63-.25.2-.53.3-.84.3-.4,0-.73-.18-.98-.53-.23.94-.71,1.73-1.45,2.38-.74.66-1.61,1-2.6,1.01-.51,0-.91-.16-1.2-.46-.32-.28-.47-.67-.47-1.17s.13-.98.4-1.42c.24-.43.56-.82.95-1.16.84-.71,1.74-1.08,2.71-1.09.5,0,.9.14,1.19.4.29.26.46.58.51.96.05.28.16.5.33.65.16.18.36.26.61.26.47,0,.94-.29,1.41-.88l.09.12Zm-6.43,3.63c.37,0,.72-.18,1.05-.51.33-.32.63-.72.9-1.19.57-1.01.87-1.86.88-2.54,0-.48-.2-.73-.61-.74-.35,0-.69.17-1.01.49-.33.32-.64.72-.93,1.19-.59,1.03-.89,1.89-.9,2.57,0,.48.2.72.61.73Z"/>
    <path class="cls-2" d="m165.59,147.91c.95-1.61,1.91-3.23,2.88-4.87l1.57-.05-1.82,2.57.03.03c.69-.83,1.25-1.4,1.66-1.7.2-.16.37-.28.51-.37.13-.08.22-.16.29-.22.19-.2.4-.33.61-.39.22-.05.58-.08,1.07-.09-.18.24-.33.5-.47.78-.16.28-.24.57-.24.88,0,.4.2.6.59.59.27,0,.52-.11.75-.29.22-.18.41-.36.58-.54l.05.07c-.25.32-.55.58-.9.77-.36.21-.75.32-1.16.32-.78,0-1.18-.38-1.19-1.15,0-.25.07-.47.2-.67l-.03-.03c-.77.54-1.46,1.2-2.06,1.98-.61.77-1.12,1.55-1.53,2.34l-1.4.04Z"/>
    <path class="cls-2" d="m170.97,147.91c.95-1.61,1.91-3.23,2.88-4.87l1.57-.05-1.82,2.57.03.03c.69-.83,1.25-1.4,1.66-1.7.2-.16.37-.28.51-.37.13-.08.22-.16.29-.22.19-.2.4-.33.61-.39.22-.05.58-.08,1.07-.09-.18.24-.33.5-.47.78-.16.28-.24.57-.24.88,0,.4.2.6.59.59.27,0,.52-.11.75-.29.22-.18.41-.36.58-.54l.05.07c-.25.32-.55.58-.9.77-.36.21-.75.32-1.16.32-.78,0-1.18-.38-1.19-1.15,0-.25.07-.47.2-.67l-.03-.03c-.77.54-1.46,1.2-2.06,1.98-.61.77-1.12,1.55-1.53,2.34l-1.4.04Z"/>
    <path class="cls-2" d="m185.74,144.33c-.19.25-.4.46-.66.63-.25.2-.53.3-.84.3-.4,0-.73-.18-.98-.53-.23.94-.71,1.73-1.45,2.38-.74.66-1.61,1-2.6,1.01-.51,0-.91-.16-1.2-.46-.32-.28-.47-.67-.47-1.17s.13-.98.4-1.42c.24-.43.56-.82.95-1.16.84-.71,1.74-1.08,2.71-1.09.5,0,.9.14,1.19.4.29.26.46.58.51.96.05.28.16.5.33.65.16.18.36.26.61.26.47,0,.94-.29,1.41-.88l.09.12Zm-6.43,3.63c.37,0,.72-.18,1.05-.51.33-.32.63-.72.9-1.19.57-1.01.87-1.86.88-2.54,0-.48-.2-.73-.61-.74-.35,0-.69.17-1.01.49-.33.32-.64.72-.93,1.19-.59,1.03-.89,1.89-.9,2.57,0,.48.2.72.61.73Z"/>
    <path class="cls-2" d="m187.29,142.99c-.38.53-.85,1.2-1.42,2.01-.26.39-.48.77-.66,1.15-.19.38-.29.71-.29,1.01,0,.16.04.29.11.39.06.12.18.18.34.18.67,0,1.45-.74,2.35-2.23.68-1.13,1.18-1.94,1.5-2.44l1.48-.05c-.36.54-.84,1.24-1.42,2.09-.27.4-.5.8-.68,1.19-.19.39-.29.73-.29,1.03,0,.39.17.59.51.59.37,0,.73-.14,1.08-.43.35-.27.67-.6.97-.99.6-.85.94-1.63,1.01-2.34-.13-.16-.2-.36-.21-.62,0-.19.06-.35.17-.49.1-.13.25-.2.45-.2.31,0,.51.13.61.35.09.24.14.49.14.77,0,.22-.02.48-.07.78.28.25.61.37.96.37.32,0,.6-.09.83-.28.24-.17.44-.36.61-.59l.09.07c-.18.26-.4.48-.66.67-.26.2-.55.3-.87.3-.4,0-.73-.13-1-.36-.29.9-.83,1.64-1.6,2.23-.77.6-1.64.9-2.59.91-.5,0-.86-.14-1.09-.39-.23-.25-.34-.56-.34-.94,0-.18.02-.32.05-.42l-.03-.03c-.29.46-.65.87-1.07,1.22-.41.36-.9.54-1.45.55-.34,0-.59-.12-.76-.34-.17-.22-.25-.49-.25-.82,0-.3.09-.63.24-.98.14-.33.32-.67.54-1.02.47-.72.88-1.33,1.24-1.84l1.47-.05Z"/>
    <path class="cls-2" d="m194.2,147.22c0-.23.08-.42.24-.55.15-.15.33-.22.54-.22.23,0,.41.07.55.22.15.13.22.32.22.55,0,.21-.07.39-.22.53-.14.15-.32.23-.55.24-.21,0-.39-.09-.54-.24-.16-.14-.24-.32-.24-.53Z"/>
  </g>
  <g>
    <g>
      <path class="cls-1" d="m57.33,17.47l65.89.2c55.2,5.61,56.14,87.86-.19,93.38l-33.25-.08-.13-4.42h33.19c56.61-10.99,44.61-82.79-3.09-84.28H55.6l1.73-4.8Z"/>
      <path class="cls-1" d="m53.85,27.12l65.99.2c45.73,2.34,50.48,65.38,3.7,74.4l-33.27.08-.18-4.16,33.1-.4c43.22-11.51,31.96-64.75-2.98-65.32H52.12l1.73-4.8Z"/>
      <path class="cls-1" d="m50.54,36.3l68.92.2c34.08,2.95,37.53,47.55,2.86,55.93l-28.3.04.04-4.23,27.91-.29c31.61-9.66,22.41-44.63-2.13-46.85H48.81l1.73-4.81Z"/>
      <path class="cls-1" d="m47.26,45.42h9.7s62.79.26,62.79.26c21.64,2.13,23.39,32.96,1.17,37.37l-21.99-.2.11-4.25,21.52-.02c18.47-5.4,14.11-26.07-.45-28.29H45.5l1.75-4.87Z"/>
    </g>
    <polygon class="cls-1" points="83.87 50.6 79.18 50.69 57.24 110.97 62.12 110.97 83.87 50.6"/>
    <polygon class="cls-1" points="93.34 50.6 88.65 50.69 66.72 110.97 71.59 110.97 93.34 50.6"/>
    <polygon class="cls-1" points="102.06 50.6 97.37 50.69 75.43 110.97 80.31 110.97 102.06 50.6"/>
    <polygon class="cls-1" points="111.53 50.6 106.84 50.69 84.9 110.97 89.78 110.97 111.53 50.6"/>
    <polygon class="cls-3" points="83.98 50.27 79.29 50.29 77.63 54.93 82.31 54.96 83.98 50.27"/>
    <polygon class="cls-3" points="93.62 50.28 88.76 50.27 87.1 54.91 91.76 54.96 93.62 50.28"/>
    <polygon class="cls-3" points="102.17 50.28 97.51 50.3 95.84 54.91 100.51 54.96 102.17 50.28"/>
    <polygon class="cls-3" points="111.63 50.28 106.94 50.3 105.32 54.89 109.96 54.98 111.63 50.28"/>
    <polygon class="cls-3" points="106.11 78.59 101.43 78.59 99.91 82.86 104.53 82.89 106.11 78.59"/>
    <polygon class="cls-3" points="75.17 88.19 70.37 88.23 68.91 92.5 73.58 92.55 75.17 88.19"/>
    <polygon class="cls-3" points="71.78 97.55 67.03 97.61 65.5 101.78 70.23 101.78 71.78 97.55"/>
    <polygon class="cls-3" points="68.49 106.54 63.77 106.56 62.26 110.96 66.91 110.99 68.49 106.54"/>
    <path class="cls-2" d="m166.92,21.95c1.03,0,2.02.26,2.97.77.95.52,1.69,1.25,2.23,2.22.54.96.81,1.97.81,3.02s-.26,2.04-.8,2.99c-.53.95-1.27,1.69-2.22,2.22-.95.53-1.95.8-2.99.8s-2.04-.27-2.99-.8c-.95-.53-1.69-1.27-2.22-2.22-.53-.95-.8-1.95-.8-2.99s.27-2.06.81-3.02c.54-.96,1.29-1.7,2.23-2.22.95-.52,1.94-.77,2.97-.77Zm0,1.18c-.83,0-1.62.21-2.38.62-.76.41-1.36,1.01-1.79,1.78-.44.77-.66,1.58-.66,2.43s.21,1.65.64,2.41c.43.76,1.02,1.36,1.79,1.79.76.43,1.56.64,2.4.64s1.64-.21,2.4-.64c.76-.43,1.36-1.02,1.79-1.79.43-.76.64-1.57.64-2.41s-.22-1.66-.66-2.43c-.44-.77-1.04-1.37-1.8-1.78-.76-.41-1.55-.62-2.38-.62Zm-2.72,8.05v-6.38h1.29c1.21,0,1.89,0,2.04.02.43.04.76.12,1,.25s.44.34.6.61c.16.27.24.58.24.91,0,.46-.15.85-.45,1.18-.3.33-.72.53-1.27.61.19.07.34.15.45.24.1.09.25.25.43.49.05.06.2.32.47.78l.75,1.29h-1.6l-.53-1.04c-.36-.7-.66-1.13-.89-1.31-.24-.18-.53-.27-.89-.27h-.34v2.62h-1.29Zm1.29-3.63h.53c.75,0,1.21-.03,1.39-.09.18-.06.32-.16.43-.3.1-.14.16-.31.16-.49s-.05-.34-.15-.47c-.1-.14-.25-.24-.44-.3-.19-.06-.65-.09-1.39-.09h-.53v1.74Z"/>
  </g>
</svg>