<?xml version="1.0" encoding="UTF-8"?>
<svg id="Layer_1" xmlns="http://www.w3.org/2000/svg" version="1.1" viewBox="0 0 166.98 135.5">
  <!-- Generator: Adobe Illustrator 30.4.0, SVG Export Plug-In . SVG Version: 2.1.4 Build 226)  -->
  <defs>
    <style>
      .st0 {
        fill: #009ee0;
      }

      .st0, .st1 {
        fill-rule: evenodd;
      }

      .st2 {
        fill: #231f20;
      }

      .st1 {
        fill: #4c638b;
      }
    </style>
  </defs>
  <g>
    <path class="st2" d="M18.24,99.33c-.8.1-1.5.43-2.11.97.74.69,1.1,1.54,1.1,2.57-.02,1.48-.58,2.61-1.67,3.37-1.08.76-2.37,1.14-3.87,1.14-.73-.02-1.42-.1-2.07-.24-.15.02-.34.06-.54.08-.21.04-.47.06-.79.06-.3,0-.51-.04-.64-.1-.12-.07-.18-.14-.18-.21,0-.14.13-.22.42-.21.15,0,.38.03.69.09s.66.12,1.06.18c.62-.14,1.16-.48,1.6-1.04.44-.55.86-1.2,1.26-1.94.4-.75.84-1.47,1.33-2.17s1.08-1.26,1.79-1.67c-.3-.26-.65-.45-1.06-.58-.4-.12-.81-.18-1.22-.18-1.21,0-2.23.38-3.07,1.1-.87.72-1.31,1.7-1.33,2.95,0,.2.03.39.09.58.05.19.13.36.23.52.21.34.54.51.98.52.34,0,.65-.1.92-.3.26-.19.47-.44.65-.76.36-.66.54-1.38.56-2.14h.13c-.06,1.18-.35,2.06-.86,2.64-.52.58-1.14.87-1.86.87-.53,0-.94-.2-1.26-.58-.31-.36-.46-.79-.46-1.3,0-.61.16-1.16.46-1.67.3-.52.69-.97,1.18-1.34,1.03-.79,2.18-1.2,3.42-1.22,1.01-.02,1.92.25,2.72.78.74-.44,1.54-.71,2.41-.82v.1h0ZM16.35,102.04c0-.28-.03-.55-.09-.82-.06-.27-.18-.52-.37-.73-.58.64-1.05,1.29-1.4,1.94-.35.66-.7,1.29-1.06,1.89-.34.6-.78,1.14-1.31,1.61-.54.48-1.3.86-2.25,1.13v.02c.1.03.3.06.62.1.32.05.7.07,1.15.07,1.37-.05,2.49-.59,3.36-1.64.88-1.05,1.33-2.23,1.34-3.56h0Z"/>
    <path class="st2" d="M24.14,104.4c-.14.2-.32.37-.52.5-.2.16-.42.24-.67.24-.32,0-.58-.14-.78-.42-.18.75-.57,1.38-1.16,1.9-.59.53-1.28.8-2.08.81-.41,0-.73-.13-.96-.37-.25-.22-.38-.54-.38-.94s.1-.78.32-1.14c.19-.34.45-.66.76-.93.67-.57,1.39-.86,2.17-.87.4,0,.72.11.95.32s.37.46.41.77c.04.22.13.4.26.52.13.14.29.21.49.21.38,0,.75-.23,1.13-.7l.07.1h0ZM19,107.31c.3,0,.58-.14.84-.41.26-.26.5-.58.72-.95.46-.81.7-1.49.7-2.03,0-.38-.16-.58-.49-.59-.28,0-.55.14-.81.39-.26.26-.51.58-.74.95-.47.82-.71,1.51-.72,2.06,0,.38.16.58.49.58h0Z"/>
    <path class="st2" d="M28.51,103.37c-1.34,2.02-2,3.18-1.98,3.48,0,.19.06.29.2.3.14,0,.36-.08.63-.27.27-.17.61-.46,1.01-.86.71-.74,1.22-1.31,1.54-1.7l.1.07c-.44.55-.99,1.16-1.65,1.83-.42.41-.78.7-1.09.88-.32.18-.6.26-.86.26s-.43-.07-.56-.21c-.14-.13-.2-.3-.21-.51,0-.26.13-.61.38-1.05.26-.44.71-1.17,1.35-2.18l1.14-.06h0ZM29.15,100.93c.14,0,.27.05.38.14.1.1.16.23.16.38,0,.15-.06.28-.17.4-.11.12-.25.18-.41.18s-.29-.04-.41-.13c-.12-.09-.18-.22-.18-.38,0-.18.06-.33.19-.44.13-.1.27-.15.44-.15h0Z"/>
    <path class="st2" d="M29.22,103.57l.08-.2h.85l.83-1.39,1.19-.04-.92,1.44h1.4l-.1.2h-1.42c-.66,1.07-1.12,1.83-1.38,2.29-.27.47-.41.8-.4.99,0,.21.1.32.3.32s.44-.1.74-.29c.3-.18.62-.44.97-.78.51-.5,1.03-1.1,1.55-1.79l.07.06c-.36.5-.86,1.07-1.5,1.74-.34.35-.7.65-1.06.87-.37.24-.73.37-1.07.38-.25,0-.45-.06-.61-.16-.18-.11-.27-.3-.27-.56,0-.37.16-.78.46-1.26.3-.47.66-1.08,1.12-1.82h-.83Z"/>
    <path class="st2" d="M37.24,103.33c-.3.42-.68.96-1.14,1.61-.21.31-.38.62-.53.92-.15.3-.23.57-.23.81,0,.13.03.23.09.31.05.1.14.14.27.14.54,0,1.16-.59,1.88-1.78.54-.9.94-1.55,1.2-1.95l1.18-.04c-.29.43-.66.99-1.14,1.67-.22.32-.4.64-.54.95-.15.31-.23.58-.23.82,0,.31.14.47.41.47.3,0,.58-.11.86-.34.28-.22.54-.48.78-.79.48-.68.75-1.3.81-1.87-.1-.13-.16-.29-.17-.5,0-.15.05-.28.14-.39.08-.1.2-.16.36-.16.25,0,.41.1.49.28.07.19.11.39.11.62,0,.18-.02.38-.06.62.22.2.49.3.78.3.26,0,.48-.07.66-.22.19-.14.35-.29.49-.47l.07.06c-.14.21-.32.38-.53.54-.21.16-.44.24-.7.24-.32,0-.58-.1-.8-.29-.23.72-.66,1.31-1.28,1.78-.62.48-1.31.72-2.07.73-.4,0-.69-.11-.87-.31s-.27-.45-.27-.75c0-.14.02-.26.04-.34l-.02-.02c-.23.37-.52.7-.86.98-.33.29-.72.43-1.16.44-.27,0-.47-.1-.61-.27s-.2-.39-.2-.66c0-.24.07-.5.19-.78.11-.26.26-.54.43-.82.38-.58.7-1.06.99-1.47l1.17-.04h0Z"/>
    <path class="st2" d="M48.31,104.36c-.42.6-.98,1.22-1.67,1.87-.5.44-.99.75-1.46.94-.47.18-.91.26-1.33.26s-.75-.14-.98-.39c-.25-.23-.37-.55-.38-.96,0-.36.12-.71.33-1.06.21-.34.48-.65.81-.93.7-.59,1.42-.9,2.15-.9.66,0,.99.24,1.01.7,0,.26-.14.49-.38.69-.25.2-.56.37-.92.5-.18.06-.35.12-.53.18-.18.06-.37.1-.54.14-.34.09-.62.15-.82.2-.03.14-.06.26-.06.39,0,.32.09.58.27.77.17.21.42.3.73.3.65,0,1.36-.37,2.14-1.09.6-.58,1.1-1.14,1.53-1.69l.07.07h.02ZM45.91,103.61c0-.19-.1-.29-.3-.29-.18,0-.37.09-.58.23-.22.14-.42.34-.61.56-.19.23-.36.46-.5.7-.14.26-.24.47-.3.66.62-.14,1.16-.39,1.6-.76.22-.18.38-.36.5-.55.12-.19.18-.38.18-.55h0Z"/>
    <path class="st2" d="M52.05,99.54l-3.42,5.44c-.29.45-.51.83-.67,1.14-.18.32-.26.57-.26.76s.08.3.24.3.38-.09.64-.27c.26-.17.54-.4.84-.7.56-.57,1.1-1.19,1.62-1.88l.1.03c-.41.56-.88,1.14-1.42,1.72-.8.86-1.51,1.29-2.16,1.29-.5,0-.75-.22-.75-.66,0-.36.31-1.05.93-2.05l3.09-5.06,1.22-.06h0Z"/>
    <path class="st2" d="M54.91,99.54l-3.42,5.44c-.29.45-.51.83-.67,1.14-.18.32-.26.57-.26.76s.08.3.24.3.38-.09.64-.27c.26-.17.54-.4.84-.7.56-.57,1.1-1.19,1.62-1.88l.1.03c-.41.56-.88,1.14-1.42,1.72-.79.86-1.51,1.29-2.16,1.29-.5,0-.75-.22-.75-.66,0-.36.31-1.05.93-2.05l3.09-5.06,1.22-.06h0Z"/>
    <path class="st2" d="M56.23,103.57l.08-.2h.85l.83-1.39,1.19-.04-.92,1.44h1.4l-.1.2h-1.42c-.66,1.07-1.12,1.83-1.38,2.29-.27.47-.41.8-.4.99,0,.21.1.32.3.32s.44-.1.74-.29c.3-.18.62-.44.97-.78.51-.5,1.03-1.1,1.55-1.79l.07.06c-.36.5-.86,1.07-1.5,1.74-.34.35-.7.65-1.06.87-.37.24-.73.37-1.07.38-.25,0-.45-.06-.61-.16-.18-.11-.27-.3-.27-.56,0-.37.16-.78.46-1.26.3-.47.66-1.08,1.12-1.82h-.84Z"/>
    <path class="st2" d="M65.37,104.4c-.15.2-.32.37-.53.5-.2.16-.42.24-.67.24-.32,0-.58-.14-.78-.42-.18.75-.57,1.38-1.16,1.9-.59.53-1.29.8-2.08.81-.41,0-.73-.13-.96-.37-.26-.22-.38-.54-.38-.94s.1-.78.32-1.14c.19-.34.45-.66.76-.93.67-.57,1.39-.86,2.17-.87.4,0,.72.11.95.32s.37.46.41.77c.04.22.13.4.26.52.13.14.29.21.49.21.38,0,.75-.23,1.13-.7l.07.1h0ZM60.22,107.31c.3,0,.58-.14.84-.41.26-.26.5-.58.72-.95.46-.81.7-1.49.7-2.03,0-.38-.16-.58-.49-.59-.28,0-.55.14-.81.39-.26.26-.51.58-.74.95-.47.82-.71,1.51-.72,2.06,0,.38.16.58.49.58h0Z"/>
    <path class="st2" d="M70.81,99.64l1.24-.06c-.82,1.3-1.74,2.72-2.75,4.28-.48.73-.88,1.38-1.18,1.94-.32.56-.49.95-.5,1.19,0,.17.08.26.23.26.34,0,.85-.32,1.54-.98.51-.53,1.05-1.16,1.6-1.9l.1.06c-.38.53-.88,1.14-1.5,1.82-.34.37-.69.66-1.02.87-.33.22-.68.34-1.04.34-.32,0-.54-.11-.66-.31-.11-.18-.14-.38-.1-.58l-.02-.02c-.22.23-.46.43-.74.58-.28.16-.6.25-.95.26-.34,0-.59-.13-.74-.35-.15-.22-.22-.48-.22-.78,0-.38.1-.75.3-1.1.19-.36.44-.69.74-.97.64-.63,1.34-.95,2.1-.97.5,0,.83.24.99.7l2.6-4.26h.02ZM65.69,107c.25,0,.5-.11.75-.34.25-.22.47-.49.69-.82.22-.33.39-.66.52-1.01.13-.34.19-.63.19-.88,0-.22-.05-.38-.15-.47-.11-.1-.26-.14-.43-.14-.23,0-.46.1-.7.3-.25.2-.47.46-.69.78-.46.66-.7,1.3-.72,1.91,0,.18.04.34.13.46.07.14.22.22.41.22h0Z"/>
    <path class="st2" d="M74.18,103.44l1.15-.06c-.1.19-.26.45-.46.76-.22.32-.45.66-.67,1-.23.34-.42.67-.59.98-.17.32-.26.58-.26.78,0,.19.09.29.27.28.18,0,.43-.1.74-.32.3-.21.61-.47.94-.81.63-.68,1.12-1.26,1.47-1.72l.07.05c-.37.51-.89,1.14-1.57,1.86-.34.36-.69.65-1.03.86-.35.22-.7.34-1.04.34-.23,0-.41-.07-.54-.19-.14-.12-.21-.26-.21-.44,0-.13.02-.22.05-.29h-.02c-.22.26-.48.47-.78.64-.29.18-.6.27-.93.27s-.59-.14-.75-.38c-.15-.23-.23-.51-.23-.82,0-.37.1-.74.3-1.1.19-.36.44-.69.76-.97.65-.62,1.34-.95,2.07-.98.49,0,.82.23.98.69l.27-.44h.02ZM70.86,106.27c0,.22.04.39.13.55.07.16.22.24.43.24.24-.03.49-.17.75-.41.25-.23.47-.52.69-.86.22-.35.39-.7.53-1.03.13-.33.19-.6.19-.81s-.03-.37-.1-.47c-.09-.1-.24-.16-.44-.16-.26,0-.51.11-.75.32-.26.22-.5.5-.7.81-.22.32-.38.64-.51.96-.14.32-.2.61-.2.86h-.02Z"/>
    <path class="st2" d="M73.55,108.14s-.12,0-.2,0c-.31,0-.55.11-.72.33-.18.23-.27.51-.27.86,0,.39.13.69.37.9.22.22.52.34.89.34.57,0,1.08-.18,1.54-.52.46-.33.89-.75,1.26-1.26.38-.51.73-1.03,1.04-1.56.3-.54.57-1.01.81-1.42l-.02-.02c-.22.29-.54.61-.97.98-.22.17-.43.31-.65.42-.24.11-.47.18-.7.18-.24,0-.42-.08-.53-.22-.1-.14-.16-.3-.16-.49s.06-.39.16-.64c.1-.24.23-.5.39-.78.34-.58.72-1.2,1.13-1.88l1.18-.04c-.62.96-1.09,1.72-1.44,2.28-.36.58-.54.98-.54,1.21,0,.19.1.29.29.3.13,0,.3-.07.52-.21.2-.13.42-.31.66-.55.49-.48.93-1.05,1.34-1.7.34-.55.58-.98.71-1.27l1.08-.04c-.77,1.37-1.54,2.74-2.32,4.08.72-.23,1.41-.65,2.06-1.26s1.19-1.22,1.63-1.86l.1.08c-.51.74-1.1,1.4-1.77,1.98-.69.58-1.39.98-2.11,1.18-.54.91-1.2,1.66-1.99,2.23-.8.59-1.73.9-2.78.9-.55,0-1.03-.11-1.44-.34-.42-.22-.62-.58-.64-1.12.02-.44.18-.76.52-.96.32-.2.69-.3,1.1-.29.19,0,.36.02.5.04v.1h0Z"/>
    <path class="st2" d="M81.15,106.72c0-.18.06-.34.19-.44.12-.12.26-.18.43-.18.18,0,.33.06.44.18.12.1.18.26.18.44,0,.17-.06.31-.18.42-.11.12-.26.18-.44.19-.17,0-.31-.07-.43-.19-.13-.11-.19-.26-.19-.42Z"/>
    <path class="st2" d="M32.73,112.4c.02.15.02.31.03.47,0,.78-.23,1.46-.69,2.03-.46.6-1.1.9-1.92.92-.5,0-.94-.14-1.27-.44-.35-.29-.54-.7-.54-1.22,0-.64.22-1.21.62-1.71.39-.49.89-.9,1.49-1.26,1.3-.68,2.55-1.03,3.74-1.04.94-.02,1.87.11,2.78.41.5-.21.98-.31,1.42-.32v.09c-.41.06-.79.18-1.15.36.29.15.52.36.7.62s.28.56.29.9c0,.36-.1.67-.26.93-.17.25-.39.46-.67.62-.59.32-1.22.5-1.88.5v.02c.23.09.43.22.59.41s.25.42.26.7c0,.22-.03.45-.09.67-.06.23-.14.46-.24.67-.08.22-.16.42-.22.62-.07.2-.1.39-.1.58,0,.23.09.34.26.34.46,0,1.02-.36,1.7-1.06.7-.74,1.21-1.36,1.54-1.86l.09.08c-.38.55-.86,1.14-1.45,1.78-.36.38-.72.69-1.07.9-.36.23-.74.35-1.13.36-.28,0-.5-.09-.66-.24-.17-.14-.26-.35-.26-.61,0-.23.05-.49.14-.75.08-.26.18-.51.3-.75.12-.26.22-.5.31-.7.08-.21.12-.38.13-.51,0-.26-.07-.43-.21-.52-.14-.08-.34-.12-.58-.14l.02-.09c.2.02.45,0,.74-.04.31-.06.58-.17.81-.34.22-.15.4-.34.54-.55.28-.46.42-.86.42-1.22,0-.23-.03-.43-.09-.61-.07-.16-.19-.32-.36-.47-.7.54-1.29,1.22-1.76,2.03-.48.82-.95,1.66-1.42,2.49-.46.83-1.03,1.53-1.71,2.08-.7.58-1.6.86-2.72.88-.44,0-.86-.11-1.27-.34-.19-.11-.34-.26-.46-.44-.12-.18-.19-.38-.2-.63,0-.22.07-.4.18-.55.11-.14.26-.22.43-.23.16,0,.3.04.41.12.1.09.16.22.17.38,0,.3-.15.46-.43.5.02.73.41,1.09,1.17,1.07.8-.02,1.48-.34,2.02-.98.54-.62,1.04-1.38,1.51-2.26.47-.9,1-1.74,1.59-2.54s1.33-1.4,2.22-1.79c-.39-.19-.79-.31-1.21-.36-.42-.05-.77-.07-1.05-.07-1.22,0-2.35.38-3.41,1.1-.5.34-.9.76-1.22,1.25-.32.5-.49,1.06-.49,1.66,0,.4.12.72.35.96.23.25.54.38.94.38.32,0,.62-.09.89-.26.26-.16.49-.38.67-.64.39-.56.59-1.14.6-1.77,0-.14,0-.32-.02-.54h.13Z"/>
    <path class="st2" d="M43.68,115.43c-.42.6-.98,1.22-1.67,1.87-.5.44-.99.75-1.46.94-.47.18-.91.26-1.33.26s-.75-.14-.98-.39c-.25-.23-.37-.55-.38-.96,0-.36.12-.71.33-1.06.21-.34.48-.65.81-.93.7-.59,1.42-.9,2.15-.9.66,0,.99.24,1.01.7,0,.26-.14.49-.38.69-.25.2-.56.37-.92.5-.18.06-.35.12-.53.18-.18.06-.37.1-.54.14-.34.09-.62.15-.82.2-.03.14-.06.26-.06.39,0,.32.09.58.27.77.17.21.42.3.73.3.65,0,1.36-.37,2.14-1.09.6-.58,1.1-1.14,1.53-1.69l.07.07h.02ZM41.28,114.68c0-.19-.1-.29-.3-.29-.18,0-.37.09-.58.23-.22.14-.42.34-.61.56-.19.23-.36.46-.5.7-.14.26-.24.47-.3.66.62-.14,1.16-.39,1.6-.76.22-.18.38-.36.5-.55.12-.19.18-.38.18-.55h0Z"/>
    <path class="st2" d="M46.74,114.5l1.15-.06c-.1.19-.26.45-.46.76-.22.32-.45.66-.67,1-.23.34-.42.67-.59.98-.17.32-.26.58-.26.78,0,.19.09.29.27.28.18,0,.43-.1.74-.32.3-.21.61-.47.94-.81.63-.68,1.12-1.26,1.47-1.72l.07.05c-.37.51-.89,1.14-1.57,1.86-.34.36-.69.65-1.03.86-.35.22-.7.34-1.04.34-.23,0-.41-.07-.54-.19-.14-.12-.21-.26-.21-.44,0-.13.02-.22.05-.29h-.02c-.22.26-.48.47-.78.64-.29.18-.6.27-.93.27s-.59-.14-.75-.38c-.15-.23-.23-.51-.23-.82,0-.37.1-.74.3-1.1.19-.36.45-.69.76-.97.65-.62,1.34-.95,2.07-.98.49,0,.82.23.98.69l.27-.44h.02ZM43.42,117.33c0,.22.04.39.13.55.07.16.22.24.43.24.24-.03.49-.17.75-.41.25-.23.47-.52.69-.86.22-.35.39-.7.53-1.03.13-.33.19-.6.19-.81s-.03-.37-.1-.47c-.09-.1-.24-.16-.44-.16-.26,0-.51.11-.75.32-.26.22-.5.5-.7.81-.22.32-.38.64-.51.96-.14.32-.2.61-.2.86h-.02Z"/>
    <path class="st2" d="M52.07,112.22l-2.55,3.89.02.02c.15-.2.32-.41.5-.62.18-.22.37-.42.57-.61.2-.19.42-.35.66-.47.23-.12.49-.18.75-.18s.49.09.64.26c.16.18.24.4.24.69,0,.36-.09.7-.23,1.02s-.34.61-.57.86l.02.02c.5-.12.98-.34,1.42-.67.45-.32.83-.68,1.14-1.07l.08.07c-.28.37-.66.74-1.12,1.1-.47.36-1.02.6-1.66.73-.3.27-.66.54-1.07.82-.21.13-.42.23-.63.31s-.43.13-.64.14c-.16,0-.3-.03-.4-.1-.12-.06-.18-.17-.18-.31,0-.15.08-.29.23-.4.15-.1.34-.18.55-.24s.43-.11.66-.14c.23-.03.42-.06.58-.08.14-.18.3-.45.47-.81.17-.34.26-.72.26-1.14,0-.18-.02-.33-.07-.46-.07-.13-.19-.19-.38-.2-.15,0-.34.08-.54.24-.21.16-.43.38-.67.66-.49.59-.99,1.3-1.5,2.14s-.99,1.64-1.44,2.42c-.45.78-.81,1.36-1.07,1.77l-1.17.04c1.98-3.2,3.95-6.41,5.9-9.63l1.19-.06h0ZM49.49,118.06c0,.16.1.24.31.24.11,0,.22-.04.34-.11.1-.06.22-.14.33-.23.22-.21.41-.4.54-.58-.1.02-.24.03-.4.06-.17.03-.34.07-.5.12-.17.04-.31.1-.43.18-.13.08-.19.19-.19.32h0Z"/>
    <path class="st2" d="M56.94,114.64l.08-.2h.85l.83-1.39,1.19-.04-.92,1.44h1.4l-.1.2h-1.42c-.66,1.07-1.12,1.83-1.38,2.29-.27.47-.41.8-.4.99,0,.21.1.32.3.32s.44-.1.74-.29c.3-.18.62-.44.97-.78.51-.5,1.03-1.1,1.55-1.79l.07.06c-.36.5-.86,1.07-1.5,1.74-.34.35-.7.65-1.06.87-.37.24-.73.37-1.07.38-.25,0-.45-.06-.61-.16-.18-.11-.27-.3-.27-.56,0-.37.16-.78.46-1.26.3-.47.66-1.08,1.12-1.82h-.84Z"/>
    <path class="st2" d="M58.55,118.32l4.63-7.64,1.21-.06-3.67,5.79.02.02c.17-.21.36-.43.56-.67.2-.25.42-.49.66-.72s.5-.42.76-.57c.26-.14.54-.22.82-.23.5,0,.74.25.75.74,0,.2-.09.42-.23.69-.15.27-.34.54-.54.82-.19.28-.37.54-.52.8-.17.26-.26.48-.26.67s.08.28.23.27c.09,0,.19-.04.31-.11.11-.06.24-.14.38-.24.29-.22.58-.49.89-.81.66-.7,1.13-1.25,1.42-1.66l.06.07c-.41.55-.92,1.15-1.54,1.8-.73.78-1.36,1.15-1.88,1.14-.26,0-.46-.09-.58-.24-.13-.14-.19-.31-.19-.52,0-.26.09-.52.26-.78.15-.26.33-.52.52-.77.21-.26.38-.5.54-.72.14-.22.22-.4.23-.56-.02-.22-.11-.32-.29-.32-.24,0-.52.15-.86.42-.33.27-.66.62-1.01,1.04-.72.9-1.25,1.66-1.57,2.3,0,0-1.14.03-1.14.03Z"/>
    <path class="st2" d="M70.6,115.43c-.42.6-.98,1.22-1.67,1.87-.5.44-.99.75-1.46.94-.47.18-.91.26-1.33.26s-.75-.14-.98-.39c-.25-.23-.37-.55-.38-.96,0-.36.12-.71.33-1.06.21-.34.48-.65.81-.93.7-.59,1.42-.9,2.15-.9.66,0,.99.24,1.01.7,0,.26-.14.49-.38.69-.26.2-.56.37-.92.5-.18.06-.35.12-.53.18-.18.06-.37.1-.54.14-.34.09-.62.15-.82.2-.04.14-.06.26-.06.39,0,.32.09.58.27.77.17.21.42.3.73.3.65,0,1.36-.37,2.14-1.09.6-.58,1.1-1.14,1.53-1.69l.07.07h.02ZM68.2,114.68c0-.19-.1-.29-.3-.29-.18,0-.37.09-.58.23-.22.14-.42.34-.61.56-.19.23-.36.46-.5.7-.14.26-.24.47-.3.66.62-.14,1.16-.39,1.6-.76.22-.18.38-.36.5-.55s.18-.38.18-.55h0Z"/>
    <path class="st2" d="M71.34,118.32c.76-1.29,1.53-2.58,2.3-3.9l1.26-.04-1.46,2.06.02.02c.55-.66,1-1.12,1.33-1.36.16-.13.3-.22.41-.3.1-.06.18-.13.23-.18.15-.16.32-.26.49-.31.18-.04.46-.06.86-.07-.14.19-.26.4-.38.62-.13.22-.19.46-.19.7,0,.32.16.48.47.47.22,0,.42-.09.6-.23.18-.14.33-.29.46-.43l.04.06c-.2.26-.44.46-.72.62-.29.17-.6.26-.93.26-.62,0-.94-.3-.95-.92,0-.2.06-.38.16-.54l-.02-.02c-.62.43-1.17.96-1.65,1.58-.49.62-.9,1.24-1.22,1.87l-1.12.03h0Z"/>
    <path class="st2" d="M82.36,115.43c-.42.6-.98,1.22-1.67,1.87-.5.44-.99.75-1.46.94-.47.18-.91.26-1.33.26s-.75-.14-.98-.39c-.25-.23-.37-.55-.38-.96,0-.36.12-.71.33-1.06.21-.34.48-.65.81-.93.7-.59,1.42-.9,2.15-.9.66,0,.99.24,1.01.7,0,.26-.14.49-.38.69-.26.2-.56.37-.92.5-.18.06-.35.12-.53.18-.18.06-.37.1-.54.14-.34.09-.62.15-.82.2-.04.14-.06.26-.06.39,0,.32.09.58.27.77.17.21.42.3.73.3.65,0,1.36-.37,2.14-1.09.6-.58,1.1-1.14,1.53-1.69l.07.07h.02ZM79.96,114.68c0-.19-.1-.29-.3-.29-.18,0-.37.09-.58.23-.22.14-.42.34-.61.56-.19.23-.36.46-.5.7-.14.26-.24.47-.3.66.62-.14,1.16-.39,1.6-.76.22-.18.38-.36.5-.55s.18-.38.18-.55h0Z"/>
    <path class="st2" d="M83.57,114.39c-.3.42-.68.96-1.14,1.61-.21.31-.38.62-.53.92-.15.3-.23.57-.23.81,0,.13.03.23.09.31.05.1.14.14.27.14.54,0,1.16-.59,1.88-1.78.54-.9.94-1.55,1.2-1.95l1.18-.04c-.29.43-.67.99-1.14,1.67-.22.32-.4.64-.54.95-.15.31-.23.58-.23.82,0,.31.14.47.41.47.3,0,.58-.11.86-.34.28-.22.54-.48.78-.79.48-.68.75-1.3.81-1.87-.1-.13-.16-.29-.17-.5,0-.15.05-.28.14-.39.08-.1.2-.16.36-.16.25,0,.41.1.49.28.07.19.11.39.11.62,0,.18-.02.38-.06.62.22.2.49.3.77.3.26,0,.48-.07.66-.22.19-.14.35-.29.49-.47l.07.06c-.14.21-.32.38-.53.54-.21.16-.44.24-.7.24-.32,0-.58-.1-.8-.29-.23.72-.66,1.31-1.28,1.78-.62.48-1.31.72-2.07.73-.4,0-.69-.11-.87-.31-.18-.2-.27-.45-.27-.75,0-.14.02-.26.04-.34l-.02-.02c-.23.37-.52.7-.86.98-.33.29-.72.43-1.16.44-.27,0-.47-.1-.61-.27-.14-.18-.2-.39-.2-.66,0-.24.07-.5.19-.78.11-.26.26-.54.43-.82.38-.58.7-1.06.99-1.47l1.18-.04h0Z"/>
    <path class="st2" d="M93.2,114.5l1.15-.06c-.1.19-.26.45-.46.76-.22.32-.45.66-.67,1-.23.34-.42.67-.59.98-.17.32-.26.58-.26.78,0,.19.09.29.27.28.18,0,.43-.1.74-.32.3-.21.61-.47.94-.81.63-.68,1.12-1.26,1.47-1.72l.07.05c-.37.51-.89,1.14-1.57,1.86-.34.36-.69.65-1.03.86-.35.22-.7.34-1.04.34-.23,0-.41-.07-.54-.19-.14-.12-.21-.26-.21-.44,0-.13.02-.22.05-.29h-.02c-.22.26-.48.47-.78.64-.29.18-.6.27-.93.27s-.59-.14-.75-.38c-.15-.23-.23-.51-.23-.82,0-.37.1-.74.3-1.1.19-.36.44-.69.76-.97.65-.62,1.34-.95,2.07-.98.49,0,.82.23.98.69l.27-.44h.02ZM89.88,117.33c0,.22.04.39.13.55.07.16.22.24.43.24.24-.03.49-.17.75-.41.25-.23.47-.52.69-.86.22-.35.39-.7.53-1.03.13-.33.19-.6.19-.81s-.03-.37-.1-.47c-.09-.1-.24-.16-.44-.16-.26,0-.51.11-.75.32-.26.22-.5.5-.7.81-.22.32-.38.64-.51.96-.14.32-.2.61-.2.86h-.02Z"/>
    <path class="st2" d="M93.68,118.32c.76-1.29,1.53-2.58,2.3-3.9l1.26-.04-1.46,2.06.02.02c.55-.66,1-1.12,1.33-1.36.16-.13.3-.22.41-.3.1-.06.18-.13.23-.18.15-.16.32-.26.49-.31.18-.04.46-.06.86-.07-.14.19-.26.4-.38.62-.13.22-.19.46-.19.7,0,.32.16.48.47.47.22,0,.42-.09.6-.23.18-.14.33-.29.46-.43l.04.06c-.2.26-.44.46-.72.62-.29.17-.6.26-.93.26-.62,0-.94-.3-.95-.92,0-.2.06-.38.16-.54l-.02-.02c-.62.43-1.17.96-1.65,1.58-.49.62-.9,1.24-1.22,1.87l-1.12.03h0Z"/>
    <path class="st2" d="M105.61,110.69l1.24-.06c-.82,1.3-1.74,2.72-2.75,4.28-.48.73-.88,1.38-1.18,1.94-.32.56-.49.95-.5,1.19,0,.17.08.26.23.26.34,0,.85-.32,1.54-.98.51-.53,1.05-1.16,1.6-1.9l.1.06c-.38.53-.88,1.14-1.5,1.82-.34.37-.69.66-1.02.87-.33.22-.68.34-1.04.34-.32,0-.54-.11-.66-.31-.11-.18-.14-.38-.1-.58l-.02-.02c-.22.23-.46.43-.74.58-.28.16-.6.25-.95.26-.34,0-.59-.13-.74-.35-.15-.22-.22-.48-.22-.78,0-.38.1-.75.3-1.1.19-.36.44-.69.74-.97.64-.63,1.34-.95,2.1-.97.5,0,.83.24.99.7l2.6-4.26h.02ZM100.49,118.06c.25,0,.5-.11.75-.34.25-.22.47-.49.69-.82.22-.33.39-.66.52-1.01.13-.34.19-.63.19-.88,0-.22-.05-.38-.15-.47-.11-.1-.26-.14-.43-.14-.23,0-.46.1-.7.3-.25.2-.47.46-.69.78-.46.66-.7,1.3-.72,1.91,0,.18.04.34.13.46.07.14.22.22.41.22h0Z"/>
    <path class="st2" d="M106.43,118.29c.74-.18,1.39-.55,1.94-1.1.55-.54,1.06-1.13,1.52-1.77l.09.07c-.56.8-1.18,1.5-1.85,2.08-.67.62-1.54.93-2.58.94-.4,0-.76-.09-1.07-.26-.14-.09-.26-.22-.35-.37-.1-.15-.16-.34-.16-.55,0-.25.08-.47.21-.69.14-.21.33-.32.59-.32.18,0,.3.05.39.14s.14.21.14.33c-.02.32-.16.47-.44.47-.09,0-.17-.02-.24-.06-.08.14-.13.29-.14.46,0,.21.09.37.24.5.15.14.34.21.56.21.3,0,.55-.1.77-.26.23-.17.35-.4.36-.69,0-.2-.06-.38-.14-.54-.09-.15-.19-.3-.31-.44-.12-.15-.22-.3-.3-.46-.1-.15-.14-.31-.14-.47,0-.22.05-.4.15-.56.09-.15.22-.28.37-.38.33-.21.7-.31,1.1-.31.37,0,.66.07.9.22.22.15.34.38.35.66,0,.22-.07.39-.21.52-.14.14-.32.21-.53.21-.14,0-.25-.02-.32-.06.14-.3.22-.58.22-.86,0-.16-.04-.3-.11-.39-.09-.1-.22-.16-.4-.16-.2,0-.35.06-.46.19s-.18.29-.18.49.05.38.14.53c.08.16.18.32.3.47.11.14.22.29.31.46.08.17.12.37.13.59,0,.3-.1.54-.26.75-.17.22-.37.35-.59.41v.02-.02Z"/>
    <path class="st2" d="M112.22,114.64l.08-.2h.85l.83-1.39,1.19-.04-.92,1.44h1.4l-.1.2h-1.42c-.66,1.07-1.12,1.83-1.38,2.29-.27.47-.41.8-.4.99,0,.21.1.32.3.32s.44-.1.74-.29c.3-.18.62-.44.97-.78.51-.5,1.03-1.1,1.55-1.79l.07.06c-.36.5-.86,1.07-1.5,1.74-.34.35-.7.65-1.06.87-.37.24-.73.37-1.07.38-.25,0-.45-.06-.61-.16-.18-.11-.27-.3-.27-.56,0-.37.16-.78.46-1.26.3-.47.66-1.08,1.12-1.82h-.84Z"/>
    <path class="st2" d="M121.36,115.46c-.15.2-.32.37-.53.5-.2.16-.42.24-.67.24-.32,0-.58-.14-.78-.42-.18.75-.57,1.38-1.16,1.9-.59.53-1.29.8-2.08.81-.41,0-.73-.13-.96-.37-.26-.22-.38-.54-.38-.94s.1-.78.32-1.14c.19-.34.45-.66.76-.93.67-.57,1.39-.86,2.17-.87.4,0,.72.11.95.32.23.21.37.46.41.77.04.22.13.4.26.52.13.14.29.21.49.21.38,0,.75-.23,1.13-.7l.07.1h0ZM116.21,118.36c.3,0,.58-.14.84-.41.26-.26.5-.58.72-.95.46-.81.7-1.49.7-2.03,0-.38-.16-.58-.49-.59-.28,0-.55.14-.81.39-.26.26-.51.58-.74.95-.47.82-.71,1.51-.72,2.06,0,.38.16.58.49.58h0Z"/>
    <path class="st2" d="M124.2,116.27c.3-.39.67-.82,1.14-1.28.22-.22.46-.39.7-.54.23-.13.47-.19.72-.2.25,0,.44.08.58.22.14.14.21.31.21.51,0,.24-.09.49-.23.75-.15.26-.34.53-.54.78-.21.26-.38.5-.54.74-.17.25-.26.47-.26.69,0,.18.08.29.23.29.31,0,.8-.34,1.48-1.03.59-.61,1.1-1.18,1.53-1.74l.09.04c-.38.5-.9,1.1-1.56,1.8-.41.41-.75.7-1.02.87-.28.17-.55.26-.82.26-.25,0-.45-.08-.59-.22-.15-.14-.22-.32-.22-.54,0-.25.09-.5.26-.77.15-.27.34-.54.54-.8.21-.26.39-.5.54-.73.14-.22.22-.39.23-.53-.02-.22-.12-.32-.3-.32-.1,0-.23.04-.38.12-.14.07-.3.18-.46.34-.32.29-.66.64-1,1.07-.7.93-1.2,1.67-1.5,2.23l-1.18.04c.53-.81.99-1.52,1.38-2.12.19-.3.34-.57.46-.8.1-.22.16-.39.16-.53,0-.1-.02-.18-.06-.24-.06-.07-.14-.1-.26-.1s-.24.04-.38.12c-.14.07-.3.18-.46.34-.32.29-.66.64-.99,1.07-.71.93-1.22,1.67-1.54,2.23l-1.11.04c.82-1.29,1.61-2.59,2.38-3.91l1.29-.06-1.47,2.01.02.02c.15-.19.34-.41.54-.64.2-.24.41-.47.64-.7s.48-.42.74-.57c.26-.14.54-.22.82-.22.22,0,.39.06.53.17.14.11.21.28.21.5s-.07.43-.19.67c-.12.24-.25.46-.38.66l.02.02h0Z"/>
    <path class="st2" d="M134.66,115.46c-.15.2-.32.37-.53.5-.2.16-.42.24-.67.24-.32,0-.58-.14-.78-.42-.18.75-.57,1.38-1.16,1.9-.59.53-1.29.8-2.08.81-.41,0-.73-.13-.96-.37-.26-.22-.38-.54-.38-.94s.1-.78.32-1.14c.19-.34.45-.66.76-.93.67-.57,1.39-.86,2.17-.87.4,0,.72.11.95.32.23.21.37.46.41.77.04.22.13.4.26.52.13.14.29.21.49.21.38,0,.75-.23,1.13-.7l.07.1h0ZM129.52,118.36c.3,0,.58-.14.84-.41.26-.26.5-.58.72-.95.46-.81.7-1.49.7-2.03,0-.38-.16-.58-.49-.59-.28,0-.55.14-.81.39-.26.26-.51.58-.74.95-.47.82-.71,1.51-.72,2.06,0,.38.16.58.49.58h0Z"/>
    <path class="st2" d="M132.47,118.32c.76-1.29,1.53-2.58,2.3-3.9l1.26-.04-1.46,2.06.02.02c.55-.66,1-1.12,1.33-1.36.16-.13.3-.22.41-.3.1-.06.18-.13.23-.18.15-.16.32-.26.49-.31.18-.04.46-.06.86-.07-.14.19-.26.4-.38.62-.13.22-.19.46-.19.7,0,.32.16.48.47.47.22,0,.42-.09.6-.23.18-.14.33-.29.46-.43l.04.06c-.2.26-.44.46-.72.62-.29.17-.6.26-.93.26-.62,0-.94-.3-.95-.92,0-.2.06-.38.16-.54l-.02-.02c-.62.43-1.17.96-1.65,1.58-.49.62-.9,1.24-1.22,1.87l-1.12.03h0Z"/>
    <path class="st2" d="M136.77,118.32c.76-1.29,1.53-2.58,2.3-3.9l1.26-.04-1.46,2.06.02.02c.55-.66,1-1.12,1.33-1.36.16-.13.3-.22.41-.3.1-.06.18-.13.23-.18.15-.16.32-.26.49-.31.18-.04.46-.06.86-.07-.14.19-.26.4-.38.62-.13.22-.19.46-.19.7,0,.32.16.48.47.47.22,0,.42-.09.6-.23.18-.14.33-.29.46-.43l.04.06c-.2.26-.44.46-.72.62-.29.17-.6.26-.93.26-.62,0-.94-.3-.95-.92,0-.2.06-.38.16-.54l-.02-.02c-.62.43-1.17.96-1.65,1.58-.49.62-.9,1.24-1.22,1.87l-1.12.03h0Z"/>
    <path class="st2" d="M148.59,115.46c-.15.2-.32.37-.53.5-.2.16-.42.24-.67.24-.32,0-.58-.14-.78-.42-.18.75-.57,1.38-1.16,1.9-.59.53-1.29.8-2.08.81-.41,0-.73-.13-.96-.37-.26-.22-.38-.54-.38-.94s.1-.78.32-1.14c.19-.34.45-.66.76-.93.67-.57,1.39-.86,2.17-.87.4,0,.72.11.95.32.23.21.37.46.41.77.04.22.13.4.26.52.13.14.29.21.49.21.38,0,.75-.23,1.13-.7l.07.1h0ZM143.44,118.36c.3,0,.58-.14.84-.41.26-.26.5-.58.72-.95.46-.81.7-1.49.7-2.03,0-.38-.16-.58-.49-.59-.28,0-.55.14-.81.39-.26.26-.51.58-.74.95-.47.82-.71,1.51-.72,2.06,0,.38.16.58.49.58h0Z"/>
    <path class="st2" d="M149.83,114.39c-.3.42-.68.96-1.14,1.61-.21.31-.38.62-.53.92-.15.3-.23.57-.23.81,0,.13.03.23.09.31.05.1.14.14.27.14.54,0,1.16-.59,1.88-1.78.54-.9.94-1.55,1.2-1.95l1.18-.04c-.29.43-.67.99-1.14,1.67-.22.32-.4.64-.54.95-.15.31-.23.58-.23.82,0,.31.14.47.41.47.3,0,.58-.11.86-.34.28-.22.54-.48.78-.79.48-.68.75-1.3.81-1.87-.1-.13-.16-.29-.17-.5,0-.15.05-.28.14-.39.08-.1.2-.16.36-.16.25,0,.41.1.49.28.07.19.11.39.11.62,0,.18-.02.38-.06.62.22.2.49.3.77.3.26,0,.48-.07.66-.22.19-.14.35-.29.49-.47l.07.06c-.14.21-.32.38-.53.54-.21.16-.44.24-.7.24-.32,0-.58-.1-.8-.29-.23.72-.66,1.31-1.28,1.78-.62.48-1.31.72-2.07.73-.4,0-.69-.11-.87-.31s-.27-.45-.27-.75c0-.14.02-.26.04-.34l-.02-.02c-.23.37-.52.7-.86.98-.33.29-.72.43-1.16.44-.27,0-.47-.1-.61-.27s-.2-.39-.2-.66c0-.24.07-.5.19-.78.11-.26.26-.54.43-.82.38-.58.7-1.06.99-1.47l1.18-.04h0Z"/>
    <path class="st2" d="M155.36,117.77c0-.18.06-.34.19-.44.12-.12.26-.18.43-.18.18,0,.33.06.44.18.12.1.18.26.18.44,0,.17-.06.31-.18.42-.11.12-.26.18-.44.19-.17,0-.31-.07-.43-.19-.13-.11-.19-.26-.19-.42Z"/>
  </g>
  <g>
    <path class="st2" d="M133.53,17.56c.82,0,1.62.21,2.38.62.76.42,1.35,1,1.78,1.78.43.77.65,1.58.65,2.42s-.21,1.63-.64,2.39c-.42.76-1.02,1.35-1.78,1.78-.76.42-1.56.64-2.39.64s-1.63-.22-2.39-.64c-.76-.42-1.35-1.02-1.78-1.78-.42-.76-.64-1.56-.64-2.39s.22-1.65.65-2.42c.43-.77,1.03-1.36,1.78-1.78.76-.42,1.55-.62,2.38-.62h0ZM133.53,18.5c-.66,0-1.3.17-1.9.5-.61.33-1.09.81-1.43,1.42-.35.62-.53,1.26-.53,1.94s.17,1.32.51,1.93.82,1.09,1.43,1.43c.61.34,1.25.51,1.92.51s1.31-.17,1.92-.51,1.09-.82,1.43-1.43c.34-.61.51-1.26.51-1.93s-.18-1.33-.53-1.94-.83-1.1-1.44-1.42c-.61-.33-1.24-.5-1.9-.5h0ZM131.36,24.94v-5.1h1.03c.97,0,1.51,0,1.63.02.34.03.61.1.8.2s.35.27.48.49.19.46.19.73c0,.37-.12.68-.36.94s-.58.42-1.02.49c.15.06.27.12.36.19.08.07.2.2.34.39.04.05.16.26.38.62l.6,1.03h-1.28l-.42-.83c-.29-.56-.53-.9-.71-1.05-.19-.14-.42-.22-.71-.22h-.27v2.1h-1.04ZM132.39,22.04h.42c.6,0,.97-.02,1.11-.07s.26-.13.34-.24c.08-.11.13-.25.13-.39s-.04-.27-.12-.38c-.08-.11-.2-.19-.35-.24s-.52-.07-1.11-.07h-.42s0,1.39,0,1.39Z"/>
    <g>
      <path class="st0" d="M45.86,13.98l52.71.16c44.16,4.48,44.91,70.29-.15,74.7l-26.59-.06-.11-3.54h26.55c45.29-8.8,35.69-66.23-2.48-67.42h-51.32l1.38-3.84Z"/>
      <path class="st0" d="M43.08,21.69l52.79.16c36.58,1.87,40.38,52.3,2.96,59.52l-26.62.06-.14-3.32,26.48-.32c34.57-9.21,25.57-51.8-2.38-52.26h-54.47l1.38-3.84Z"/>
      <path class="st0" d="M40.43,29.04l55.14.16c27.26,2.36,30.02,38.04,2.28,44.75l-22.64.03.03-3.39,22.33-.23c25.29-7.73,17.93-35.7-1.71-37.48h-56.82l1.38-3.85Z"/>
      <path class="st0" d="M37.8,36.34h7.76l50.23.21c17.31,1.71,18.71,26.37.93,29.9l-17.59-.16.09-3.4,17.22-.02c14.78-4.33,11.29-20.86-.36-22.63h-59.7l1.4-3.9Z"/>
      <polygon class="st0" points="67.09 40.48 63.34 40.55 45.79 88.78 49.69 88.78 67.09 40.48"/>
      <polygon class="st0" points="74.67 40.48 70.92 40.55 53.37 88.78 57.27 88.78 74.67 40.48"/>
      <polygon class="st0" points="81.65 40.48 77.9 40.55 60.35 88.78 64.25 88.78 81.65 40.48"/>
      <polygon class="st0" points="89.22 40.48 85.47 40.55 67.92 88.78 71.82 88.78 89.22 40.48"/>
      <polygon class="st1" points="67.19 40.22 63.43 40.23 62.1 43.94 65.85 43.97 67.19 40.22"/>
      <polygon class="st1" points="74.89 40.23 71.01 40.22 69.68 43.93 73.41 43.97 74.89 40.23"/>
      <polygon class="st1" points="81.73 40.23 78 40.24 76.67 43.93 80.4 43.97 81.73 40.23"/>
      <polygon class="st1" points="89.3 40.22 85.55 40.24 84.26 43.91 87.96 43.98 89.3 40.22"/>
      <polygon class="st1" points="84.88 62.88 81.14 62.87 79.92 66.28 83.63 66.32 84.88 62.88"/>
      <polygon class="st1" points="82.2 70.55 78.36 70.58 77.2 74 80.93 74.04 82.2 70.55"/>
      <polygon class="st1" points="79.49 78.04 75.69 78.09 74.47 81.43 78.25 81.43 79.49 78.04"/>
      <polygon class="st1" points="76.86 85.23 73.08 85.25 71.87 88.77 75.6 88.79 76.86 85.23"/>
    </g>
  </g>
</svg>